<?xml version="1.0" encoding="utf-8"?>
<!-- Generator: Adobe Illustrator 27.0.0, SVG Export Plug-In . SVG Version: 6.00 Build 0)  -->
<svg version="1.1" id="Layer_1" xmlns="http://www.w3.org/2000/svg" xmlns:xlink="http://www.w3.org/1999/xlink" x="0px" y="0px"
	 viewBox="0 0 250.88 252.1" style="enable-background:new 0 0 250.88 252.1;" xml:space="preserve">
<style type="text/css">
	.st0{fill:#8DB73F;}
</style>
<path class="st0" d="M0,252.1c0,0,22.11-39.23,123.89-73.06l3.5,5.14c0,0-97.08,34.22-120.75,67.92H0z"/>
<g>
	<path class="st0" d="M117.03,186.28C85.66,123.61,138.57,92.59,124.4,2.3c-0.01,0-0.46-6.42,3.58,2.18
		c12.6,26.84,12.73,26.98,13.73,30.24C152.6,67.86,169.6,145.43,117.03,186.28z"/>
	<path class="st0" d="M135.54,163.53c27.62-11.32,46.26-6.36,83.68-0.87c1.96,0.29,5.64,1.19,7.57,1.62
		c9.28,2.11,31.28,9.07,21.74,8.73c-6.85-0.24-18.38,0.93-25.25,2.39c-1.49,0.32-2.95,0.73-4.39,1.22
		c-41.93,14.23-83.11,11.73-102.97,7.75C118.23,181.92,133.56,165.46,135.54,163.53z"/>
</g>
</svg>
