<?xml version="1.0" encoding="utf-8"?>
<svg version="1.1" id="Layer_1" xmlns="http://www.w3.org/2000/svg" xmlns:xlink="http://www.w3.org/1999/xlink" x="0px" y="0px"
	 viewBox="0 0 411.4 174.2" style="enable-background:new 0 0 411.4 174.2;" xml:space="preserve">
<style type="text/css">
	path{fill:#8DB73F;filter: drop-shadow(8px 8px 5px rgba(0,0,0,0.13));}
</style>
		<path d="M269.8,75.8l-8-19.8c-1.8-2.7-10.7-38.5-16-44c-0.5-0.5-4.6-3.2-5.6-4.1c-0.1-0.1-0.2-0.2-0.3-0.4l-1.8-2.9
			l-2.7-4.3c0,0-1-1.1-0.9,0.9s0.8,3.8,0.2,6.4c-0.1,0.5-0.2,0.9-0.3,1.2c-0.3,1.6-1.5,3.7-2.7,4.8c-6.5,6.1-11,36.1-12.9,41.5
			c-6.5,17.9-4.6,15.2-15,32.1c0,0-17.2,29.5-16.8,40.2c0.2,7.4,1.9,9.4,1.9,9.4s2,3.6,7.5,3.9c5.1,0.3,11.7-4.4,12.7-5.2
			c0.1-0.1,0.2-0.1,0.2-0.2c1.6-1.9,22.6-26.5,24.2-44.1c0,0,0.9-5,0.9-11.5c0,0,0.5-16.7,0.8-18.2c0.6-3,3.6-16.2,6.3-16.4
			c2.3-0.1,4.5,14.1,5.3,19.6c0.2,1.3,0.3,2.6,0.3,3.9c0.5,71.6,61.4,102.2,32,28.6"/>
		<path d="M111.8,21.8c0,0,26.4-15.7,45.4-1.5c0,0,17.9,7.5,24.9,21.3c2.6,5.1,10.4,19-1.4,40.2
			c-12,21.5-39.5,23-39.5,23s-30.8,3.8-48-15.4S83,49.2,83,49.2S88.1,30.5,111.8,21.8z"/>
		<path d="M377.1,8.4c10.9,0.4,24-1.3,34.2-3.2V2.7c-13.9,2.6-33.8,4.8-45.5,1.7c-11.6-3-19.4-2.7-24.6-1.5
			c-2.1,0.4-4.9,1.4-8.5,3.3c-13,25.1-18.7,87.1-25,114.7c-1.9,5.7-3.4,16.7,4.2,18.9c7.8,1.4,12.2-2.3,14-5.6
			c6.5-18.3,12.2-54.1,16.4-85.3c2.5,20.2,6.9,40.7,8.4,46.5c1.1,3.2,4.2,6.8,9.9,5.9c5.6-2.1,1.1-23.2,0.5-30.8
			c-1.4-12.4-6.2-59.5-6.1-61.8c-0.4-1.6-1-2.8-1.7-3.7c3.6,0.2,7.7,0.9,12.2,2.1c1.7,0.5,3.5,0.8,5.5,1
			c-15.1,12.2,10.9,116.6,11,118.2c1.1,9.8,10.1,15.3,15.5,7c7.5-14.6-6.2-59.1-9.2-77C386.3,43.8,381.8,20.6,377.1,8.4z"/>
		<path d="M110.6,121.8c-1.4-0.3-4.1-1-5.6-1.2c-26.7-3.9-40.4-7.4-59.7-0.2c18.9-31.2,9.2-73.9,2.5-94.2
			c-0.7-2.4-0.8-2.5-10.1-22.3c-3-6.3-2.6-1.6-2.6-1.6c10.3,65.9-27.7,89-6.2,134.2l-0.1,0.1h0.1c0.2,0.4,0.3,0.7,0.5,1.1
			C15.7,149.1,6.3,162.2,0,174.2h4c9.8-18.2,22.2-30,30.7-36.6c16,2.2,42.8,2.6,70.1-6.7c1.1-0.4,2.1-0.7,3.2-0.9
			c5.1-1.1,13.6-1.9,18.6-1.8C133.7,128.5,117.4,123.3,110.6,121.8z"/>
</svg>
